<?xml version="1.0" encoding="utf-8"?>
<svg xmlns="http://www.w3.org/2000/svg">
  <path style="fill: rgb(216, 216, 216); stroke: rgb(0, 0, 0);" d="M 83.478 122.405 C 92.493 121.456 100.204 119.375 107.266 113.322 C 110.292 110.728 114.386 107.865 116.782 104.671 C 117.137 104.197 118.472 101.644 118.945 101.644 C 120.497 101.644 117.826 104.542 117.215 105.969 C 115.875 109.095 114.099 112.258 112.889 115.484 C 109.798 123.728 106.467 131.891 103.374 140.138 C 103.2 140.6 100.779 148.356 100.779 148.356 C 100.779 148.356 101.211 145.332 101.211 145.329 C 101.665 142.154 103.61 139.416 105.104 136.678 C 110.17 127.39 114.06 113.85 122.837 107.266 C 125.478 105.286 130.223 101.228 133.651 102.941 C 136.22 104.226 134.841 109.697 134.083 111.592 C 131.39 118.325 123.913 128.11 118.08 132.353 C 116.886 133.221 112.75 138.555 110.727 137.543 C 108.97 136.665 113.744 133.096 114.187 132.785 C 117.162 130.703 130.957 122.592 133.651 129.325 C 136.836 137.29 128.918 146.612 122.837 150.087 C 121.501 150.85 114.509 153.869 112.889 152.249 C 109.175 148.535 115.992 144.452 118.945 141.869 C 127.826 134.097 138.784 128.339 146.626 119.377 C 149.489 116.105 152.43 113.482 154.844 109.862 C 155.016 109.603 155.277 107.266 155.277 107.266 C 155.277 107.266 151.701 115.716 151.384 116.349 C 146.608 125.901 146.873 136.969 142.734 146.626 C 142.43 147.334 141.071 154.844 140.138 154.844 C 138.976 154.844 139.706 152.546 139.706 151.384 C 139.706 147.071 140.636 142.95 141.869 138.841 C 144.629 129.639 147.409 123.092 153.114 115.484 C 154.757 113.294 158.26 110.545 161.332 111.159 C 166.858 112.264 166.239 116.514 163.927 120.675 C 160.265 127.268 154.931 133.997 150.087 138.841 C 149.432 139.496 155.126 143.614 155.709 144.031 C 160.386 147.372 163.863 151.32 167.82 155.277"/>
</svg>