<?xml version="1.0" encoding="utf-8"?>
<svg viewBox="198.776 212.586 102.448 74.827" xmlns="http://www.w3.org/2000/svg">
  <path d="M 248.943 256.074 Q 248.943 258.129 248.269 259.914 Q 247.595 261.7 246.416 263.166 Q 245.236 264.631 243.67 265.777 Q 242.103 266.922 240.301 267.697 Q 238.498 268.472 236.578 268.86 Q 234.657 269.247 232.804 269.247 L 204.268 269.247 L 204.268 220.731 L 230.345 220.731 Q 232.063 220.731 233.95 220.984 Q 235.837 221.237 237.639 221.776 Q 239.442 222.315 241.076 223.191 Q 242.71 224.067 243.939 225.33 Q 245.169 226.594 245.893 228.245 Q 246.618 229.895 246.618 232.018 Q 246.618 234.039 245.809 235.69 Q 245.001 237.341 243.636 238.638 Q 242.272 239.935 240.503 240.929 Q 238.734 241.923 236.78 242.664 Q 239.239 243.338 241.446 244.45 Q 243.653 245.562 245.321 247.179 Q 246.988 248.796 247.965 251.003 Q 248.943 253.21 248.943 256.074 Z M 233.04 233.197 Q 233.04 229.087 230.867 227.2 Q 228.694 225.313 224.685 225.313 L 217.643 225.313 L 217.643 241.047 L 223.539 241.047 Q 225.359 241.047 227.077 240.592 Q 228.795 240.138 230.126 239.177 Q 231.457 238.217 232.248 236.735 Q 233.04 235.252 233.04 233.197 Z M 235.399 255.231 Q 235.399 253.244 234.893 251.508 Q 234.388 249.773 233.343 248.51 Q 232.299 247.247 230.732 246.522 Q 229.166 245.798 227.043 245.798 L 217.643 245.798 L 217.643 264.53 L 225.864 264.53 Q 227.919 264.53 229.671 263.856 Q 231.423 263.183 232.703 261.97 Q 233.984 260.757 234.691 259.039 Q 235.399 257.32 235.399 255.231 Z" style="fill: rgb(0, 0, 0); white-space: pre;"/>
  <path d="M 270.278 269.247 L 256.903 269.247 L 256.903 220.731 L 280.756 220.731 Q 284.126 220.731 287.259 221.523 Q 290.392 222.315 292.801 224.016 Q 295.21 225.718 296.642 228.413 Q 298.074 231.108 298.074 234.949 Q 298.074 237.948 296.81 240.592 Q 295.547 243.237 293.441 245.309 Q 291.336 247.381 288.607 248.746 Q 285.878 250.11 282.946 250.548 Q 284.26 252.772 285.692 254.76 Q 287.124 256.747 288.59 258.483 Q 290.055 260.218 291.504 261.683 Q 292.953 263.149 294.267 264.362 Q 297.366 267.192 300.398 269.247 L 283.721 269.247 Q 281.7 267.327 279.88 264.631 Q 278.331 262.34 276.764 258.954 Q 275.197 255.568 274.355 251.121 L 270.278 251.121 Z M 284.496 234.949 Q 284.496 230.064 282.121 227.773 Q 279.746 225.482 274.995 225.482 L 270.278 225.482 L 270.278 246.539 L 274.995 246.539 Q 277.522 246.539 279.325 245.579 Q 281.127 244.619 282.273 243.018 Q 283.418 241.418 283.957 239.329 Q 284.496 237.24 284.496 234.949 Z" style="fill: rgb(0, 0, 0); white-space: pre;"/>
</svg>